<?xml version="1.0" encoding="UTF-8"?><svg id="Capa_1" xmlns="http://www.w3.org/2000/svg" viewBox="0 0 49.92 41.61"><defs><style>.cls-1{fill:#fff;stroke-width:0px;}</style></defs><path class="cls-1" d="M49.92,2.4c-.65.76-1.49.96-2.46.93-1.44-.05-2.88.03-4.32-.03-.85-.04-1.23.19-1.45,1.1-2.41,9.85-4.87,19.69-7.32,29.52-.51,2.03-.51,2.03-2.54,2.16.33.8.94,1.62.92,2.44-.02.81-.49,1.77-1.07,2.39-.95,1.02-2.78.87-3.82-.08-1.26-1.15-1.22-2.52.16-4.74h-15.11c.31.83.92,1.7.88,2.55-.03.81-.57,1.75-1.16,2.34-.96.95-2.72.77-3.73-.15-1.26-1.15-1.22-2.52.19-4.79-.77,0-1.47,0-2.18,0-1.19-.02-1.69-.48-1.67-1.52.01-1.04.51-1.49,1.71-1.52.88-.02,1.76,0,2.64,0,6.88,0,13.76-.02,20.63.02.92,0,1.37-.21,1.52-1.19.19-1.21.57-2.39.9-3.71-.55,0-.97,0-1.4,0-8.12,0-16.23,0-24.35,0-1.91,0-2.19-.22-2.63-2.05C2.93,20.4,1.59,14.73.25,9.06c-.05-.23-.16-.44-.25-.66v-.96c.66-.97,1.64-1.09,2.72-1.09,10.86.01,21.73,0,32.59,0q2.72,0,3.41-2.7c.14-.54.31-1.08.4-1.62.16-.92.58-1.62,1.44-2.03h9.36v2.4ZM35.76,15.59c.5-2.03,1-4.04,1.51-6.11h-6.22c-.25,2.06-.5,4.05-.75,6.11h5.46ZM3.81,9.46c.5,2.1.98,4.13,1.44,6.11h5.19c-.23-2.08-.45-4.07-.68-6.11H3.81ZM13.65,15.57h5.08v-6.11h-5.78c.23,2.07.46,4.07.69,6.11ZM27.09,15.59c.26-2.07.5-4.06.76-6.12h-5.74v6.12h4.98ZM29.14,24.96c1.07,0,2.03-.07,2.97.02,1.01.09,1.49-.22,1.67-1.28.28-1.62.74-3.21,1.14-4.86h-5.04c-.25,2.04-.49,4-.74,6.12ZM18.85,18.83h-4.82c.23,2.07.44,4.06.66,6.05h4.16v-6.05ZM6.01,18.82c.5,2.12.98,4.12,1.44,6.05h4.07c-.24-2.07-.47-4.04-.71-6.05h-4.8ZM22.1,24.88h3.85c.25-2.05.49-4.01.73-6.04h-4.58v6.04Z"/></svg>