<?xml version="1.0" encoding="UTF-8"?><svg id="Capa_1" xmlns="http://www.w3.org/2000/svg" viewBox="0 0 110.37 104.67"><defs><style>.cls-1{fill:#fff;stroke-width:0px;}</style></defs><path class="cls-1" d="M31.54,104.67c-.26-.25-.57-.48-.78-.77-.76-1.09-.07-2.47,1.34-2.58,1.32-.1,2.65-.04,3.98-.05.43,0,.87,0,1.36,0v-18.22c-2.76-.35-5.33-1.19-7.62-2.74-5.52-3.74-7.82-8.85-6.86-15.54.95-6.6,1.63-13.24,2.43-19.86.18-1.46.73-1.98,2.18-1.98,7.77,0,15.53,0,23.3,0,1.39,0,1.99.5,2.14,1.79.88,7.23,1.84,14.45,2.59,21.69.65,6.29-2.28,10.87-7.45,14.17-2.15,1.37-4.55,2.12-7.15,2.45v18.22c1.6,0,3.16-.04,4.72.02.58.02,1.26.16,1.7.5.93.71.66,1.86-.54,2.87h-15.33ZM27.05,59.44c-.28,2.47-.59,5.07-.88,7.67-.22,1.95.17,3.79,1.05,5.53,3.68,7.27,13.8,9.38,20.39,4.24,3.41-2.66,5.15-6.06,4.6-10.49-.8-6.42-1.54-12.84-2.29-19.26-.07-.58-.28-.81-.89-.81-6.54.02-13.08.02-19.62,0-.6,0-.84.2-.91.79-.27,2.54-.55,5.07-.89,7.6-.09.69.16.95.72,1.22,3.53,1.67,7.24,1.91,10.98,1.17,2.28-.45,4.48-1.33,6.71-2.02,1.07-.33,1.93-.02,2.31.88.36.86.03,1.75-.93,2.19-4.34,2-8.88,3.08-13.67,2.58-2.21-.23-4.38-.84-6.68-1.3Z"/><path class="cls-1" d="M24.43,10.34c-1.57-.51-2.17-1.06-2.03-1.97.27-1.74,1.69-1.56,2.98-1.63v-3.25h-10.73v3.22c1.25.16,2.85-.16,2.99,1.77.07.93-.5,1.4-2.04,1.82v1.09c0,5.08-.02,10.15.02,15.23,0,1.19-.43,1.88-1.53,2.34-6.84,2.86-10.72,8.7-10.72,16.12,0,16.62,0,33.25,0,49.87,0,2.2.59,2.79,2.78,2.79,6.27,0,12.54,0,18.81,0,1.71,0,2.52.55,2.52,1.7,0,1.16-.81,1.72-2.51,1.72-6.34,0-12.68,0-19.01,0-3.8,0-5.94-2.14-5.94-5.96,0-16.76-.04-33.52.01-50.28.03-8.49,3.95-14.66,11.49-18.54.55-.28.71-.6.71-1.18-.02-5.04,0-10.08-.02-15.13,0-.3.02-.67-.13-.89-1.5-2.15-.82-4.55-.69-6.84.08-1.35,1.52-2.32,3.08-2.34,3.71-.04,7.43-.05,11.14,0,1.85.03,3.05,1.2,3.2,3.07.11,1.35.04,2.72,0,4.08,0,.36-.07.82-.28,1.07-.88,1.02-.68,2.22-.69,3.39,0,4.43.02,8.86-.02,13.29,0,.82.23,1.25.99,1.61,3.6,1.72,6.39,4.36,8.44,7.78.05.09.11.17.16.26.48.93.31,1.85-.46,2.35-.81.54-1.75.33-2.4-.56-.64-.88-1.2-1.82-1.9-2.65-1.78-2.12-3.98-3.69-6.57-4.71-1.4-.55-1.66-.96-1.66-2.46,0-5.04,0-10.08,0-15.13,0-.37,0-.74,0-1.08Z"/><path class="cls-1" d="M7.19,66.69c0-7.35,0-14.71,0-22.06,0-4.35,1.81-7.74,5.43-10.15,1.13-.75,2.09-.65,2.68.24.59.88.31,1.82-.82,2.56-2.78,1.83-3.95,4.45-3.94,7.72.02,14.74,0,29.48,0,44.22,0,.44.01.89-.05,1.32-.12.91-.79,1.48-1.67,1.46-.87-.02-1.52-.61-1.62-1.53-.04-.34-.02-.68-.02-1.02,0-7.59,0-15.18,0-22.78Z"/><path class="cls-1" d="M49.68,66.78c-.03,4.53-3.88,8.74-8.59,9.48-.54.08-1.08.17-1.62.18-1.09.02-1.85-.62-1.92-1.57-.07-.88.57-1.54,1.59-1.81,1.39-.37,2.88-.62,4.12-1.29,1.96-1.07,3.05-2.85,3.02-5.19-.02-1.43.51-2.14,1.57-2.2,1.09-.06,1.73.67,1.84,2.09,0,.14.01.27.02.31Z"/><path class="cls-1" d="M89.72,104.67c-.22-.22-.49-.41-.67-.66-.65-.93-.06-2.11,1.15-2.2,1.13-.09,2.27-.03,3.41-.04.37,0,.74,0,1.16,0v-15.58c-2.36-.3-4.56-1.02-6.52-2.34-4.72-3.2-6.69-7.57-5.87-13.29.81-5.65,1.4-11.32,2.08-16.99.15-1.25.62-1.69,1.87-1.7,6.64,0,13.29,0,19.93,0,1.19,0,1.7.43,1.83,1.54.75,6.18,1.57,12.36,2.21,18.56.55,5.38-1.95,9.3-6.37,12.12-1.84,1.18-3.89,1.82-6.12,2.1v15.59c1.37,0,2.7-.04,4.04.02.5.02,1.07.14,1.45.43.79.6.57,1.59-.46,2.46h-13.12ZM85.87,65.98c-.24,2.11-.5,4.34-.76,6.56-.19,1.67.15,3.24.9,4.73,3.15,6.22,11.81,8.03,17.44,3.63,2.92-2.27,4.4-5.18,3.93-8.97-.68-5.49-1.32-10.98-1.96-16.47-.06-.5-.24-.69-.76-.69-5.59.02-11.19.02-16.78,0-.52,0-.72.17-.78.68-.23,2.17-.47,4.34-.76,6.5-.08.59.14.81.62,1.04,3.02,1.43,6.19,1.63,9.39,1,1.95-.38,3.83-1.13,5.74-1.73.91-.29,1.65-.02,1.97.75.31.73.02,1.49-.8,1.87-3.71,1.71-7.6,2.64-11.69,2.2-1.89-.2-3.75-.72-5.71-1.11Z"/><path class="cls-1" d="M83.63,23.98c-1.35-.44-1.86-.91-1.74-1.68.23-1.49,1.45-1.34,2.55-1.4v-2.78h-9.17v2.76c1.07.14,2.44-.14,2.56,1.52.06.79-.43,1.2-1.75,1.56v.94c0,4.34-.02,8.68.01,13.03,0,1.01-.37,1.61-1.31,2-5.85,2.45-9.17,7.44-9.17,13.79,0,14.22,0,28.44,0,42.66,0,1.88.51,2.39,2.38,2.39,5.36,0,10.73,0,16.09,0,1.46,0,2.15.47,2.16,1.45,0,.99-.69,1.47-2.14,1.47-5.42,0-10.84,0-16.26,0-3.25,0-5.08-1.83-5.08-5.1,0-14.34-.03-28.67.01-43.01.02-7.26,3.38-12.54,9.83-15.86.47-.24.61-.51.61-1.01-.01-4.31,0-8.63-.01-12.94,0-.26.02-.57-.11-.76-1.28-1.84-.7-3.89-.59-5.85.07-1.15,1.3-1.98,2.63-2,3.18-.04,6.35-.05,9.53,0,1.58.02,2.61,1.03,2.74,2.62.09,1.16.03,2.33,0,3.49,0,.31-.06.7-.24.91-.75.87-.59,1.9-.59,2.9,0,3.79.02,7.58-.02,11.36,0,.7.2,1.07.84,1.38,3.08,1.47,5.46,3.73,7.22,6.65.04.07.1.15.14.22.41.8.26,1.58-.39,2.01-.69.46-1.5.28-2.05-.48-.55-.75-1.03-1.56-1.62-2.27-1.52-1.82-3.41-3.16-5.62-4.03-1.19-.47-1.42-.82-1.42-2.1,0-4.31,0-8.63,0-12.94,0-.32,0-.63,0-.93Z"/><path class="cls-1" d="M68.88,72.18c0-6.29,0-12.58,0-18.87,0-3.72,1.54-6.62,4.65-8.68.96-.64,1.79-.55,2.3.21.5.75.27,1.55-.71,2.19-2.38,1.57-3.38,3.8-3.37,6.6.01,12.61,0,25.22,0,37.83,0,.38,0,.76-.04,1.13-.1.78-.68,1.26-1.43,1.25-.75-.02-1.3-.53-1.38-1.31-.03-.29-.02-.58-.02-.87,0-6.49,0-12.99,0-19.48Z"/><path class="cls-1" d="M105.23,72.26c-.02,3.88-3.32,7.48-7.35,8.11-.46.07-.92.14-1.39.15-.93.01-1.58-.53-1.65-1.34-.06-.75.49-1.31,1.36-1.55,1.19-.32,2.46-.53,3.52-1.11,1.67-.92,2.61-2.43,2.58-4.44-.02-1.22.44-1.83,1.34-1.88.93-.05,1.48.58,1.57,1.79,0,.12.01.23.01.26Z"/></svg>