<?xml version="1.0" encoding="UTF-8"?><svg id="Capa_1" xmlns="http://www.w3.org/2000/svg" viewBox="0 0 112.72 105.24"><defs><style>.cls-1{fill:#fff;stroke-width:0px;}</style></defs><path class="cls-1" d="M3.14,105.24C1.53,103.38,0,101.53,0,98.84.03,71.12.03,43.4,0,15.68c0-1.91.21-3.63,1.75-4.83-.02-.18,0-.28-.04-.31C.08,9.33.4,7.58.48,5.94c.05-1.03.82-1.33,1.74-1.33,2.64,0,5.28.03,7.92-.02.8-.02,1.63-.18,2.38-.47,3.13-1.2,6.23-2.47,9.35-3.71.25-.1.51-.2.77-.29.91-.29,1.64,0,1.96.78.31.77-.01,1.51-.91,1.9-1.03.45-2.09.85-3.14,1.27-.27.11-.53.24-.77.54.32,0,.64,0,.97,0,7.3,0,14.6,0,21.9,0,1.95,0,2.28.34,2.29,2.26q0,2.04-1.38,3.88c1.98,1.5,1.81,3.68,1.81,5.86-.02,26.79-.04,53.59.04,80.38,0,2.54-.37,4.79-1.92,6.8-.39.5-.83.97-1.24,1.45H3.14ZM42.44,98.67v-1.1c0-27.55,0-55.1,0-82.66,0-1.62-1.12-2.73-2.73-2.73-11.34,0-22.69,0-34.03,0-1.68,0-2.77,1.09-2.77,2.8,0,27.52,0,55.04,0,82.55,0,.37,0,.73,0,1.14h39.53ZM3.35,7.56c.39,1.21,1.05,1.71,2.16,1.71,8.25,0,16.5,0,24.76,0,3.25,0,6.51,0,9.76,0,.97,0,1.76-.7,1.92-1.71H3.35ZM4.25,101.68c-.04.13-.08.27-.12.4.43.09.85.26,1.28.26,11.51.01,23.03.01,34.54.01.24,0,.5.06.71-.02.22-.09.38-.31.75-.65H4.25Z"/><path class="cls-1" d="M19.41,55.4c-1.86,0-3.64,0-5.41,0-.45,0-.89.02-1.34,0-1.34-.09-1.9-.84-1.54-2.14.98-3.52,1.99-7.04,2.99-10.56,1.43-5,2.86-10,4.28-14.99.51-1.79.69-1.92,2.59-1.92,3.63,0,7.26,0,10.9,0,2.36,0,2.85.7,2,2.88-1.91,4.91-3.81,9.82-5.72,14.73-.12.31-.24.63-.4,1.08.41.03.73.06,1.05.06,2.26,0,4.52,0,6.78,0,1.75.01,2.34,1.08,1.41,2.57-8.03,12.9-16.06,25.8-24.13,38.69-.31.49-.92,1-1.46,1.11-1.05.22-1.7-.9-1.31-2.14,1.41-4.47,2.83-8.93,4.26-13.39,1.58-4.95,3.16-9.9,4.73-14.86.1-.32.18-.65.31-1.11ZM30.76,28.68c-2.97,0-5.77.04-8.58-.02-.87-.02-1.15.3-1.37,1.08-1.53,5.47-3.11,10.92-4.67,16.38-.59,2.06-1.17,4.13-1.79,6.36.48,0,.81,0,1.14,0,1.68,0,3.36,0,5.04,0,2.17,0,2.67.68,2.02,2.7-1.92,6.03-3.85,12.06-5.77,18.09-.09.3-.16.6-.24.9.05.02.1.04.14.06,5.53-8.88,11.06-17.76,16.69-26.81-.54,0-.87,0-1.2,0-2.02,0-4.04.02-6.07,0-1.69-.02-2.27-.89-1.68-2.48.19-.51.39-1.02.59-1.53,1.88-4.84,3.77-9.68,5.73-14.72Z"/><path class="cls-1" d="M70.48,105.24c-1.61-1.86-3.14-3.71-3.13-6.4.02-27.72.02-55.44,0-83.16,0-1.91.21-3.63,1.75-4.83-.02-.18,0-.28-.04-.31-1.63-1.21-1.31-2.95-1.23-4.6.05-1.03.82-1.33,1.74-1.33,2.64,0,5.28.03,7.92-.02.8-.02,1.63-.18,2.38-.47,3.13-1.2,6.23-2.47,9.35-3.71.25-.1.51-.2.77-.29.91-.29,1.64,0,1.96.78.31.77-.01,1.51-.91,1.9-1.03.45-2.09.85-3.14,1.27-.27.11-.53.24-.77.54.32,0,.64,0,.97,0,7.3,0,14.6,0,21.9,0,1.95,0,2.28.34,2.29,2.26q0,2.04-1.38,3.88c1.98,1.5,1.81,3.68,1.81,5.86-.02,26.79-.04,53.59.04,80.38,0,2.54-.37,4.79-1.92,6.8-.39.5-.83.97-1.24,1.45h-39.08ZM109.78,98.67v-1.1c0-27.55,0-55.1,0-82.66,0-1.62-1.12-2.73-2.73-2.73-11.34,0-22.69,0-34.03,0-1.68,0-2.77,1.09-2.77,2.8,0,27.52,0,55.04,0,82.55,0,.37,0,.73,0,1.14h39.53ZM70.69,7.56c.39,1.21,1.05,1.71,2.16,1.71,8.25,0,16.5,0,24.76,0,3.25,0,6.51,0,9.76,0,.97,0,1.76-.7,1.92-1.71h-38.59ZM71.59,101.68c-.04.13-.08.27-.12.4.43.09.85.26,1.28.26,11.51.01,23.03.01,34.54.01.24,0,.5.06.71-.02.22-.09.38-.31.75-.65h-37.17Z"/><path class="cls-1" d="M86.74,55.4c-1.86,0-3.64,0-5.41,0-.45,0-.89.02-1.34,0-1.34-.09-1.9-.84-1.54-2.14.98-3.52,1.99-7.04,2.99-10.56,1.43-5,2.86-10,4.28-14.99.51-1.79.69-1.92,2.59-1.92,3.63,0,7.26,0,10.9,0,2.36,0,2.85.7,2,2.88-1.91,4.91-3.81,9.82-5.72,14.73-.12.31-.24.63-.4,1.08.41.03.73.06,1.05.06,2.26,0,4.52,0,6.78,0,1.75.01,2.34,1.08,1.41,2.57-8.03,12.9-16.06,25.8-24.13,38.69-.31.49-.92,1-1.46,1.11-1.05.22-1.7-.9-1.31-2.14,1.41-4.47,2.83-8.93,4.26-13.39,1.58-4.95,3.16-9.9,4.73-14.86.1-.32.18-.65.31-1.11ZM98.1,28.68c-2.97,0-5.77.04-8.58-.02-.87-.02-1.15.3-1.37,1.08-1.53,5.47-3.11,10.92-4.67,16.38-.59,2.06-1.17,4.13-1.79,6.36.48,0,.81,0,1.14,0,1.68,0,3.36,0,5.04,0,2.17,0,2.67.68,2.02,2.7-1.92,6.03-3.85,12.06-5.77,18.09-.09.3-.16.6-.24.9.05.02.1.04.14.06,5.53-8.88,11.06-17.76,16.69-26.81-.54,0-.87,0-1.2,0-2.02,0-4.04.02-6.07,0-1.69-.02-2.27-.89-1.68-2.48.19-.51.39-1.02.59-1.53,1.88-4.84,3.77-9.68,5.73-14.72Z"/></svg>