<?xml version="1.0" encoding="UTF-8"?><svg id="Capa_1" xmlns="http://www.w3.org/2000/svg" viewBox="0 0 112.7 105.23"><defs><style>.cls-1{fill:#fff;stroke-width:0px;}</style></defs><path class="cls-1" d="M112.7,98.83c-.09.27-.18.55-.26.82-1.58,5.42-7.97,7.31-12.26,3.62-.19-.17-.38-.34-.64-.57-1.54,1.55-3.37,2.46-5.56,2.48-2.2.02-4.06-.85-5.47-2.28-1.39.71-2.63,1.63-4.03,2-4.65,1.27-9.02-2.07-9.35-6.99-.03-.44-.02-.88-.02-1.32,0-16.17.01-32.34,0-48.52,0-8.14,3.39-14.24,10.69-18.03.71-.37.71-.43.48-1.84-.52-.03-1.06-.05-1.68-.09v-3.65c.55-.04,1.11-.08,1.81-.12,0-1.12-.01-2.21,0-3.3.03-2.69,1.48-4.13,4.17-4.14,2.31,0,4.62-.02,6.93,0s3.86,1.54,3.93,3.84c.03,1.17,0,2.34,0,3.6.6.03,1.13.06,1.85.1v3.65c-.61.03-1.14.06-1.74.09-.21.92-.17,1.52.88,2.07,5.7,2.99,9.05,7.72,10.07,14.09.04.25.13.49.2.73v53.76ZM78.96,52.65v31.78h29.93v-31.78h-29.93ZM79.02,48.79h30.05c-.14-1.63-.12-3.22-.44-4.73-1.13-5.29-4.23-8.98-9.24-11.06-1.41-.58-1.67-.96-1.68-2.47v-2.26h-7.52c0,.82-.02,1.55,0,2.28.05,1.22-.47,1.99-1.62,2.44-.91.36-1.81.8-2.65,1.31-4.75,2.92-7.64,8.58-6.9,14.49ZM78.88,88.32c0,3.09-.02,6.06,0,9.02.02,2.35,1.46,3.97,3.57,4.1,2.03.12,3.61-1.32,3.94-3.6.19-1.32.84-2.03,1.88-2.03s1.73.73,1.91,2.01c.31,2.25,1.79,3.67,3.8,3.63,1.97-.04,3.43-1.47,3.7-3.65.16-1.28.86-2.02,1.9-2s1.73.78,1.87,2.06c.23,2.16,1.83,3.65,3.84,3.59,2.06-.07,3.63-1.72,3.65-3.91.03-2.86,0-5.72,0-8.57,0-.21-.06-.41-.09-.64h-29.98,0ZM90.24,24.37h7.38v-3.61h-7.38v3.61Z"/><path class="cls-1" d="M37.6,76.76c0-6.53.04-13.06,0-19.58-.05-6.97,1.59-13.49,4.93-19.6,3-5.48,4.48-11.34,4.44-17.6-.03-5.76,0-11.51,0-17.27,0-2.16.56-2.71,2.76-2.71h9.79c1.88,0,2.5.62,2.51,2.51.02,6.53-.05,13.06.07,19.58.1,5.29,1.53,10.29,4.08,14.91,3.6,6.54,5.29,13.49,5.24,20.96-.09,13.6-.1,27.21.02,40.81.03,4.05-2.81,6.53-6.49,6.46-7.04-.14-14.08-.04-21.12-.04-3.94,0-6.2-2.26-6.2-6.22v-22.22h-.02ZM67.55,88.28h-19.95c-1.92,0-2.5-.57-2.5-2.48v-30.7c0-1.9.59-2.49,2.49-2.49h19.74c-.03-.34-.03-.59-.07-.83-.62-4.56-2.15-8.8-4.35-12.83-2.39-4.39-4-9.08-4.36-14.07-.3-4.09-.22-8.2-.32-12.31,0-.42-.05-.84-.07-1.22h-7.46c0,2.57-.05,5.05,0,7.54.18,7.54-1.6,14.57-5.24,21.18-2.66,4.83-4.07,10.06-4.09,15.58-.06,14.53-.03,29.05-.03,43.58,0,1.54.68,2.22,2.22,2.23,7.26.01,14.53.01,21.79,0,1.58,0,2.25-.69,2.25-2.31v-9.9c0-.28-.04-.57-.06-.96h0ZM48.94,56.4v28.04h18.61v-28.04h-18.61ZM50.8,3.8v3.66h7.37v-3.66h-7.37Z"/><path class="cls-1" d="M0,75.1C0,68.5-.01,61.89.02,55.29c0-.77.2-1.6.53-2.31,1.02-2.19,2.16-4.33,3.21-6.5.47-.97,1.16-1.4,2.26-1.4,7.26.03,14.53.02,21.79,0,1.1,0,1.77.45,2.24,1.42,1.09,2.24,2.25,4.44,3.32,6.7.29.61.43,1.33.43,2.01.02,13.28.03,26.56,0,39.84,0,.74-.21,1.53-.52,2.2-1.02,2.19-2.16,4.33-3.21,6.5-.49,1.01-1.21,1.46-2.34,1.46-7.23-.02-14.45-.02-21.68,0-1.08,0-1.8-.42-2.27-1.39-1.11-2.27-2.28-4.51-3.36-6.8-.27-.57-.4-1.26-.4-1.9-.03-6.68-.02-13.35-.02-20.03h0ZM30.06,64.97c-.24-.02-.32-.06-.38-.03-.28.1-.55.21-.82.31-3.43,1.36-6.97,2.31-10.68,2.31-4.77,0-9.3.97-13.65,2.89-.6.27-.8.56-.8,1.21.03,4.36,0,8.73.02,13.09,0,.2.04.41.06.69.29-.09.49-.15.69-.23,4-1.68,8.17-2.54,12.51-2.56,3.4-.02,6.71-.63,9.87-1.89,1.05-.42,2.43-.65,2.99-1.43.52-.75.16-2.11.19-3.21v-.99s0-10.16,0-10.16ZM30,83.56c-4.08,1.78-8.15,2.83-12.42,2.82-4.56,0-8.86,1-12.99,2.87-.32.14-.78.45-.8.71-.08,1.3-.04,2.61-.04,3.91h26.24v-10.31h.01ZM3.8,66.68c.44-.16.81-.29,1.18-.44,3.74-1.53,7.63-2.38,11.66-2.37,4.49.02,8.69-1.1,12.75-2.9.26-.12.63-.39.64-.61.06-1.31.03-2.62.03-3.93H3.8v10.25ZM4.97,52.53h23.88c-.57-1.15-1.05-2.21-1.63-3.22-.14-.24-.57-.44-.86-.44-6.3-.02-12.61-.02-18.91,0-.28,0-.69.15-.81.36-.58,1.04-1.09,2.13-1.67,3.29h0ZM4.97,97.76c.59,1.18,1.09,2.27,1.68,3.31.12.21.53.37.81.37,6.31.02,12.62.02,18.93,0,.27,0,.68-.16.79-.37.58-1.04,1.09-2.13,1.67-3.3H4.97Z"/></svg>