<?xml version="1.0" encoding="UTF-8"?><svg id="Capa_1" xmlns="http://www.w3.org/2000/svg" viewBox="0 0 112.29 105.24"><defs><style>.cls-1{fill:#fff;stroke-width:0px;}</style></defs><path class="cls-1" d="M112.29,104.05c-.65.96-1.59,1.18-2.72,1.17-8.15-.03-16.29-.01-24.44-.01-.15,0-.29,0-.44,0-.89.03-1.71-.16-2.12-1.01-.42-.87-.09-1.62.52-2.33,2.63-3.03,5.23-6.1,7.88-9.12.53-.61.75-1.22.74-2.01-.04-3.72-.03-7.44,0-11.15,0-.61-.18-.94-.76-1.22-5.77-2.79-8.52-7.42-8.59-13.58-.06-5.03-.02-10.06,0-15.08,0-1.95.61-2.53,2.63-2.53,8.22,0,16.44,0,24.66-.01,1.19,0,2.17.25,2.65,1.42v18.07c-.06.2-.13.39-.16.59-.84,5.12-3.64,8.86-8.45,11.14-.58.27-.77.61-.77,1.22.03,3.83,0,7.65.04,11.48,0,.47.24,1.03.56,1.4,2.91,3.45,5.85,6.87,8.79,10.3v1.28ZM86.23,63.51c-.73,4.15,1.4,8.76,4.97,10.9,4.02,2.41,8.83,2.35,12.48-.17,3.59-2.48,5.6-7.04,4.71-10.74h-22.16ZM86.16,59.77h22.34v-8.88h-22.34v8.88ZM106.36,101.51c-2.15-2.51-4.11-4.84-6.13-7.11-.77-.86-1.09-1.77-1.07-2.89.05-3.54.02-7.08.02-10.62v-1.08h-3.74c0,.44,0,.82,0,1.21,0,3.61-.02,7.22.01,10.83,0,.95-.27,1.69-.91,2.41-1.78,2.01-3.52,4.07-5.27,6.11-.29.34-.57.69-.95,1.16h18.04Z"/><path class="cls-1" d="M61.82,54.43c.51,0,.94,0,1.37,0,4.2,0,8.4,0,12.61,0,.47,0,.96,0,1.41.11.84.2,1.3.76,1.34,1.6.04.88-.38,1.52-1.25,1.77-.48.14-1.01.15-1.52.15-4.6.01-9.2,0-13.9,0v25.37h1.19c6.76,0,13.52,0,20.28,0,.5,0,1.04.02,1.51.17.87.27,1.25.94,1.18,1.81-.07.85-.59,1.36-1.4,1.56-.38.09-.8.07-1.2.07-6.76,0-13.52,0-20.28,0h-1.28v14.46c.38.02.77.05,1.15.05,4.27,0,8.55,0,12.82,0,.47,0,.96.02,1.41.14.88.24,1.32.86,1.29,1.74-.03.88-.51,1.46-1.41,1.66-.39.08-.8.09-1.2.09-5.08,0-10.16,0-15.24,0-2.12,0-2.68-.53-2.68-2.57,0-18.31-.01-36.62,0-54.93,0-6.27,4.07-10.66,10.47-11.4.21-.02.43-.06.7-.1v-17.77c-.91-.47-1.81-.8-2.53-1.35-.88-.66-1.15-1.68-1.15-2.76.01-3.51-.02-7.01.01-10.52.02-2.29,1.45-3.75,3.82-3.77,4.93-.05,9.87-.05,14.8,0,2.35.03,3.78,1.53,3.8,3.8.02,3.29,0,6.59,0,9.88,0,2.75-.88,3.84-3.67,4.5v18.04c.86,0,1.72,0,2.58,0,.47,0,.96,0,1.41.09,1.03.21,1.61.95,1.5,1.9-.11.98-.72,1.54-1.72,1.6-.95.06-1.9.03-2.85.03-5.15,0-10.3-.02-15.45,0-3.95.02-6.74,2.03-7.72,5.52-.12.44-.19.9-.2,1.36-.02,2.51,0,5.01,0,7.65ZM84.16,14.48V3.71h-14.83v10.77h14.83ZM80.43,18.22h-7.33v17.99h7.33v-17.99Z"/><path class="cls-1" d="M16.83,96.16c-2.33,0-4.59,0-6.85,0-3.25-.01-5.99-1.07-8.02-3.62-1.32-1.66-1.92-3.57-1.93-5.64-.03-4.11-.05-8.22,0-12.33.06-5.28,3.94-9.1,9.38-9.23,2.99-.07,5.99-.03,8.99-.01,1.4,0,1.92.47,2.22,1.85.25,1.15,1.01,1.81,1.98,1.73,1.06-.09,1.72-.85,1.75-2.08.03-1.03,0-2.05,0-3.08,0-.99.41-1.73,1.45-1.98,1.01-.25,1.93.2,2.28,1.32.63,2,2.82,2.75,4.64,1.62,1.4-.86,2.79.05,2.82,1.69.03,1.31,0,2.62.01,3.93.02,1.36.73,2.2,1.84,2.23,1.14.03,1.88-.84,1.89-2.26.01-2.76-.02-5.53.01-8.29.02-1.72,1.58-2.73,2.83-1.8.5.37.79,1.15.92,1.79.45,2.14,2.12,3.51,4.13,3.27,2.21-.27,3.62-2.1,3.27-4.24-.32-1.98-2.36-3.29-4.5-2.87-.29.06-.56.16-.85.2-1.11.17-1.93-.29-2.22-1.25-.28-.91.22-1.78,1.24-2.19,2.72-1.07,6.14-.29,8.14,1.83,1.4,1.49,2.01,3.25,2.01,5.24,0,11.26.03,22.53-.02,33.79-.02,4.66-2.68,7.98-7.16,9.11-.97.25-2.02.28-3.04.29-5.55.03-11.11-.11-16.66.05-6.03.17-10.23-3.6-10.57-9.08ZM27.96,68.44c-.02.05-.08.18-.13.31-.85,2.3-2.55,3.64-5.04,3.78-2.4.13-4.18-.97-5.35-3.04-.16-.28-.66-.51-1.01-.51-2.15-.05-4.31-.03-6.47-.02-3.92.01-6.19,2.2-6.2,6,0,3.75,0,7.51,0,11.26,0,4.14,2.22,6.31,6.46,6.31,2.74,0,5.48-.01,8.22,0,1.44.01,2.12.69,2.17,2.1.01.28,0,.57,0,.85,0,3.9,2.21,6.07,6.21,6.08,5.85.01,11.69,0,17.54,0,.65,0,1.33-.03,1.95-.19,2.73-.68,4.2-2.74,4.21-5.83,0-8.78,0-17.57,0-26.35v-1.23c-2.55,1.29-4.98,1.24-7.5.05,0,1,.02,1.81,0,2.62-.08,3.18-2.42,5.53-5.54,5.56-3.12.03-5.57-2.38-5.66-5.58-.02-.55,0-1.1,0-1.51-1.39-.23-2.6-.44-3.87-.65Z"/><path class="cls-1" d="M24.63,52.91c.39-.72.67-1.33,1.04-1.88,1.75-2.62,4.25-3.94,7.47-3.8,3.22.14,5.58,1.69,7.09,4.44.57,1.05.31,2.07-.6,2.59-.96.55-2.01.24-2.66-.88-.91-1.58-2.25-2.49-4.13-2.55-2.12-.07-3.97,1.3-4.55,3.31-.53,1.81-.63,1.9-2.58,2.14-.25.03-.51.06-.75.15-1.35.5-2.36.17-3.21-1-.69-.95-1.97-1.2-3.06-.79-1.03.38-1.76,1.38-1.78,2.46-.03,1.09.61,2.06,1.67,2.52.37.16.76.27,1.1.46.84.47,1.14,1.45.76,2.31-.37.83-1.23,1.26-2.15,1.06-2.59-.54-4.8-2.87-5.12-5.37-.36-2.87,1.04-5.48,3.66-6.64,2.39-1.05,4.69-.79,6.82.72.29.21.56.44.98.76Z"/><path class="cls-1" d="M76.19,61.74c1.45-.07,2.28.5,2.36,1.61.08,1.12-.64,1.82-2.06,1.99-3.21.38-5.36,2.54-5.37,5.4,0,2.85,2.19,5.08,5.36,5.44,1.48.16,2.21.89,2.06,2.06-.14,1.09-1.06,1.67-2.45,1.53-5-.49-8.55-4.13-8.72-8.91-.16-4.69,3.89-8.88,8.81-9.12Z"/><path class="cls-1" d="M11.27,76.19v9h5.61c0-1.08-.01-2.13,0-3.18.02-1.35.73-2.18,1.85-2.18,1.11,0,1.86.84,1.88,2.18.02,1.56.02,3.12,0,4.67-.02,1.47-.7,2.19-2.2,2.21-2.89.04-5.77.03-8.66,0-1.56-.02-2.25-.72-2.26-2.26-.02-3.93-.02-7.86,0-11.79,0-1.6.69-2.26,2.34-2.26,2.81-.01,5.63-.01,8.44,0,1.45,0,2.35.74,2.32,1.84-.04,1.08-.9,1.76-2.3,1.77-2.3.01-4.6,0-7.02,0Z"/><path class="cls-1" d="M26.21,85.34c0-2.83-.01-5.67.01-8.5,0-.52.08-1.08.3-1.53.34-.71,1.08-1.1,1.81-.82.59.23,1.09.8,1.49,1.31.2.26.13.75.13,1.14,0,5.52,0,11.05,0,16.57,0,.18,0,.35,0,.53-.08,1.29-.79,2.08-1.87,2.08-1.08,0-1.85-.79-1.86-2.07-.04-2.9-.01-5.81-.01-8.71h0Z"/><path class="cls-1" d="M41.2,87.05c0-2.27-.01-4.53,0-6.8,0-1.41.65-2.18,1.79-2.21,1.19-.04,1.94.77,1.94,2.2.02,4.57.02,9.13,0,13.7,0,1.35-.76,2.18-1.87,2.19-1.12,0-1.85-.82-1.86-2.17-.02-2.3,0-4.6,0-6.9Z"/><path class="cls-1" d="M33.72,87.15c0-1.16-.03-2.33,0-3.49.04-1.24.71-1.95,1.79-1.98,1.08-.03,1.88.67,1.91,1.88.06,2.36.06,4.73,0,7.09-.03,1.13-.86,1.85-1.85,1.85-1.05,0-1.8-.76-1.84-1.96-.04-1.13,0-2.26-.01-3.39Z"/></svg>