<?xml version="1.0" encoding="UTF-8"?><svg id="Capa_1" xmlns="http://www.w3.org/2000/svg" viewBox="0 0 111.72 105.24"><defs><style>.cls-1{fill:#fff;stroke-width:0px;}</style></defs><path class="cls-1" d="M20.39,0c2.17.87,2.98,2.52,2.85,4.79-.07,1.23.05,2.47-.04,3.7-.05.63-.4,1.24-.59,1.86-.08.28-.17.58-.16.87.16,2.76.7,5.4,2.2,7.81,1.36,2.17,2.51,4.48,3.79,6.7,2.24,3.86,3.21,8.04,3.21,12.48,0,6.51.09,13.02-.04,19.53-.03,1.77-.56,3.57-1.11,5.28-1.61,4.96-2.9,9.94-2.08,15.21.52,3.35,1.09,6.69,1.73,10.01.65,3.36.88,6.71.08,10.08-.14.6-.35,1.18-.59,1.75-1.63,3.83-4.84,5.19-8.71,3.62-.69-.28-1.13-.24-1.72.22-2.34,1.83-4.51,1.8-6.79-.08-.52-.43-.89-.41-1.45-.17-3.85,1.67-7.28.29-8.91-3.6-1.25-2.99-1.37-6.14-.91-9.29.65-4.36,1.48-8.7,2.16-13.06.58-3.73,0-7.37-1-10.96-.54-1.91-1.25-3.77-1.76-5.68-.3-1.11-.49-2.29-.5-3.44-.05-5.89.09-11.79-.06-17.68-.15-6.09,1.42-11.63,4.63-16.76.83-1.33,1.52-2.76,2.38-4.08,1.55-2.38,2.1-5.02,2.26-7.79.01-.24.11-.58,0-.7-1.31-1.37-.58-3.06-.76-4.6-.05-.41.02-.82-.01-1.23-.18-2.26.67-3.92,2.84-4.79h9.05ZM2.82,59.4c.45,1.33.84,2.49,1.24,3.65,2.02,5.86,2.77,11.82,1.57,17.99-.76,3.93-1.43,7.88-1.92,11.85-.27,2.24.01,4.53,1.08,6.6,1.01,1.98,2.64,2.59,4.73,1.85.39-.14.75-.33,1.12-.51,1.64-.81,1.74-.8,3.01.47,1.57,1.57,2.78,1.59,4.41.08.13-.12.26-.23.36-.36.67-.86,1.47-.9,2.36-.4.3.17.61.32.92.46,2.47,1.17,4.34.51,5.44-2,.86-1.95,1.09-4.06.89-6.14-.25-2.58-.79-5.14-1.15-7.71-.48-3.45-1.11-6.9-1.32-10.37-.27-4.51,1.09-8.79,2.54-13.01.27-.78.49-1.58.76-2.45H2.82ZM28.62,38.24H3.13v18.32h25.49v-18.32ZM25.85,26.51c-1-1.76-1.84-3.44-2.86-5-2.02-3.09-3.13-6.45-3.22-10.14-.02-.63-.28-.82-.88-.81-1.99.03-3.97.04-5.96,0-.72-.02-.95.23-.97.93-.13,3.38-.99,6.53-2.86,9.41-.97,1.49-1.78,3.08-2.66,4.63-.16.29-.3.59-.5.98h19.91ZM2.65,35.37h26.42c-.55-1.89-1.07-3.61-1.56-5.34-.17-.61-.51-.78-1.12-.77-1.95.04-3.9.01-5.85.01-5.03,0-10.07,0-15.1.02-.35,0-.94.16-1.02.38-.63,1.82-1.16,3.68-1.77,5.69ZM20.51,7.83c0-1.44.03-2.77-.01-4.09-.02-.69-.45-1.05-1.14-1.05-2.32,0-4.65-.04-6.97.04-.38.01-1.04.5-1.07.81-.12,1.41-.05,2.83-.05,4.29h9.24Z"/><path class="cls-1" d="M57.47,20.45c1.75.7,2.4,2.03,2.29,3.86-.06.99.04,1.99-.03,2.98-.04.51-.32,1-.47,1.5-.07.23-.14.47-.13.7.13,2.23.56,4.35,1.78,6.29,1.09,1.75,2.02,3.61,3.06,5.4,1.8,3.11,2.58,6.48,2.59,10.05,0,5.24.07,10.49-.03,15.73-.03,1.43-.45,2.88-.9,4.25-1.3,3.99-2.33,8.01-1.67,12.25.42,2.7.88,5.39,1.39,8.07.52,2.71.71,5.41.06,8.12-.11.48-.28.95-.48,1.41-1.31,3.09-3.9,4.18-7.02,2.92-.55-.22-.91-.19-1.38.18-1.89,1.47-3.63,1.45-5.47-.07-.42-.34-.71-.33-1.17-.13-3.1,1.34-5.86.24-7.18-2.9-1.01-2.41-1.1-4.95-.73-7.48.52-3.52,1.19-7.01,1.74-10.52.47-3,0-5.94-.81-8.83-.43-1.54-1-3.04-1.42-4.58-.24-.9-.4-1.84-.4-2.77-.04-4.75.07-9.5-.05-14.24-.12-4.91,1.15-9.37,3.73-13.5.67-1.07,1.23-2.22,1.92-3.28,1.25-1.92,1.69-4.05,1.82-6.28.01-.19.09-.47,0-.57-1.06-1.1-.47-2.46-.61-3.7-.04-.33.02-.66,0-.99-.14-1.82.54-3.16,2.29-3.86h7.29ZM43.31,68.31c.36,1.07.68,2,1,2.94,1.63,4.73,2.23,9.53,1.27,14.49-.61,3.16-1.15,6.35-1.54,9.55-.22,1.8.01,3.65.87,5.32.81,1.59,2.12,2.09,3.81,1.49.31-.11.6-.27.9-.41,1.32-.65,1.41-.64,2.42.38,1.27,1.27,2.24,1.29,3.55.07.1-.09.21-.18.29-.29.54-.69,1.18-.72,1.9-.32.24.13.49.26.74.37,1.99.95,3.5.41,4.39-1.61.69-1.57.88-3.27.72-4.94-.2-2.08-.64-4.14-.93-6.21-.39-2.78-.9-5.56-1.06-8.36-.22-3.64.88-7.08,2.05-10.48.22-.63.4-1.27.62-1.97h-20.99ZM64.09,51.25h-20.53v14.76h20.53v-14.76ZM61.86,41.81c-.8-1.42-1.48-2.77-2.3-4.03-1.62-2.49-2.52-5.2-2.6-8.17-.01-.51-.22-.66-.71-.65-1.6.02-3.2.03-4.8,0-.58-.01-.76.19-.78.75-.11,2.72-.8,5.26-2.31,7.58-.78,1.2-1.43,2.48-2.14,3.73-.13.23-.24.47-.4.79h16.04ZM43.17,48.94h21.28c-.45-1.52-.87-2.91-1.26-4.3-.14-.49-.41-.63-.9-.62-1.57.03-3.14.01-4.72.01-4.06,0-8.11,0-12.17.01-.28,0-.76.13-.82.31-.51,1.47-.93,2.96-1.42,4.58ZM57.56,26.76c0-1.16.02-2.23,0-3.3-.02-.55-.36-.84-.92-.85-1.87,0-3.75-.03-5.62.03-.31.01-.84.4-.86.66-.09,1.14-.04,2.28-.04,3.46h7.45Z"/><path class="cls-1" d="M90.89,105.24c-1.16-.53-2.3-1.12-3.5-1.57-.42-.16-.97-.04-1.45.04-2.61.49-5.06.17-6.98-1.78-.77-.79-1.33-1.88-1.69-2.94-.49-1.44-.72-2.96-1.02-4.46-.46-2.31-.24-4.59.45-6.84.75-2.43,1.69-4.83,2.14-7.31.32-1.79.24-3.74-.11-5.54-.71-3.66-1.73-7.25-2.58-10.89-.21-.91-.34-1.87-.35-2.81-.03-6.45,0-12.91-.02-19.36-.02-4.05.81-7.85,2.81-11.42,1.97-3.52,3.8-7.12,5.62-10.72.97-1.92,1.47-4,1.6-6.16q-2.07-.88-2.07-3.23c0-2.21,0-4.42,0-6.62,0-1.46.54-2,1.98-2.18,4.02-.51,8.05-.76,12.09-.43,1.42.12,2.84.27,4.25.46,1,.13,1.57.74,1.59,1.81.04,2.72.05,5.44,0,8.15-.02,1.16-.53,1.58-2.05,1.92.06,2.19.58,4.29,1.56,6.23,1.95,3.88,3.99,7.72,6.05,11.54,1.72,3.19,2.43,6.61,2.45,10.18.03,6.86.11,13.73-.05,20.58-.05,2.03-.79,4.04-1.25,6.05-.54,2.31-1.15,4.61-1.68,6.92-.53,2.29-.47,4.58.2,6.84.76,2.53,1.58,5.05,2.25,7.6.51,1.93.42,3.9-.07,5.85-.3,1.18-.52,2.39-.78,3.58-.7,3.19-3.83,5.57-7.07,5.14-1.9-.25-3.7-.57-5.32.83-.33.29-.86.35-1.3.52h-5.71ZM79.66,64.08c.75,3.08,1.46,6.05,2.18,9.01.55,2.29,1.02,4.6.51,6.94-.5,2.24-1.18,4.45-1.77,6.67-.38,1.44-.85,2.86-1.09,4.32-.39,2.35.63,4.54.94,6.81.19,1.42,1.08,2.37,2.44,2.49,1.28.12,2.61-.11,3.89-.31.87-.14,1.6-.1,2.24.56.88.9,1.98,1.27,3.22,1.26.98,0,1.98.07,2.95-.03.68-.07,1.47-.2,1.99-.59,1.59-1.22,3.25-1.58,5.12-.84.13.05.26.08.39.1,2.32.4,3.98-.73,4.44-3.03.08-.4.16-.8.24-1.2.44-2.12,1.08-4.24.46-6.42-.54-1.89-1.09-3.78-1.74-5.63-1.33-3.8-1.45-7.61-.38-11.5.78-2.83,1.38-5.71,2.08-8.62h-28.11ZM108.17,60.59v-18.9h-28.92v18.9h28.92ZM108.16,38.14c-.37-1.26-.57-2.49-1.08-3.57-1.27-2.66-2.66-5.26-4.05-7.86-2.26-4.21-4.66-8.37-4.81-13.36h-8.96c-.23,3.64-1.39,6.94-3.1,10.07-1.77,3.24-3.5,6.51-5.22,9.78-.81,1.53-1.37,3.15-1.5,4.94h28.73ZM87.13,9.84h13.09v-5.18c-4.2-.54-8.35-.47-12.5-.02-.22.02-.55.4-.56.63-.05,1.49-.03,2.98-.03,4.57Z"/></svg>