<?xml version="1.0" encoding="UTF-8"?><svg id="Capa_1" xmlns="http://www.w3.org/2000/svg" viewBox="0 0 111.05 105.04"><defs><style>.cls-1{fill:#fff;stroke-width:0px;}</style></defs><path class="cls-1" d="M100.93,9.78c.17.67.48,1.34.49,2.01.05,3.5,0,7.01.04,10.51.01,1.11-.22,1.98-1.52,2.22,0,1.37-.03,2.7.02,4.03.01.26.27.61.52.76,1.45.9,2.95,1.72,4.39,2.63,3.96,2.52,6.06,6.13,6.15,10.83.05,2.91,0,5.83.02,8.75,0,1.14-.42,1.96-1.47,2.47-.2.1-.39.45-.4.69-.04,1.55-.02,3.1-.02,4.74,1.62.49,1.92,1.73,1.9,3.27-.06,4.34-.02,8.68-.02,13.03,0,.25,0,.5,0,.74-.05.85-.63,1.45-1.39,1.45-.77,0-1.39-.58-1.41-1.44-.03-1.55-.01-3.1-.01-4.65,0-.34,0-.67,0-1.07h-35.95c-.01.31-.04.64-.04.96,0,1.58.01,3.16-.01,4.75-.01.86-.62,1.45-1.38,1.45-.77,0-1.4-.58-1.41-1.43-.02-4.93-.02-9.86,0-14.79,0-1.17.77-1.84,1.86-2.26,0-1.6.02-3.21-.02-4.82,0-.23-.25-.53-.47-.65-.95-.51-1.39-1.28-1.39-2.34,0-3.04-.08-6.08.03-9.12.15-4.35,2.07-7.8,5.69-10.23,1.54-1.04,3.2-1.9,4.77-2.9.31-.2.59-.7.61-1.07.08-1.2.03-2.42.03-3.74-1.5-.2-1.54-1.3-1.53-2.49.03-3.5-.02-7.01.04-10.51,0-.59.41-1.17.62-1.75,7.09,0,14.18,0,21.27,0ZM108.21,46.63h-1.12c-6.56,0-13.12,0-19.68,0-.31,0-.63.03-.93-.04-.72-.17-1.15-.66-1.13-1.39.02-.77.46-1.27,1.27-1.36.31-.03.62-.02.93-.02,6.5,0,13,0,19.49,0h1.15c.17-3.97-1.23-7.08-4.46-9.25-1.67-1.12-3.45-2.1-5.2-3.1-.33-.19-.76-.26-1.14-.26-4.79-.02-9.58-.02-14.36,0-.36,0-.76.05-1.06.23-1.75,1-3.5,2.01-5.2,3.09-3.15,2-5.03,5.98-4.42,9.25.29.01.59.04.9.04,2.05,0,4.1,0,6.16,0,.22,0,.44,0,.65,0,.96.04,1.52.56,1.51,1.4,0,.82-.58,1.39-1.52,1.4-2.27.02-4.54,0-6.81,0-.33,0-.65.03-1.01.04,0,1.45-.03,2.78.02,4.11,0,.25.25.59.49.73.89.51,1.37,1.22,1.37,2.26,0,2.02,0,4.03,0,6.05,0,1-.47,1.7-1.33,2.18-.21.12-.51.34-.52.53-.04,1.76-.02,3.51-.02,5.29h35.99c0-1.77.01-3.5-.02-5.23,0-.19-.26-.45-.46-.55-.95-.5-1.4-1.27-1.4-2.33,0-1.95,0-3.91,0-5.86,0-1.07.47-1.82,1.41-2.33.21-.11.44-.43.44-.66.04-1.36.02-2.72.02-4.22ZM81.91,12.44v9.12h16.61v-9.12h-16.61ZM97.02,28.35v-3.81h-13.6v3.81h13.6Z"/><path class="cls-1" d="M90.23,104.9c-3.82,0-7.65,0-11.47,0-5.52,0-9.35-3.84-9.36-9.38,0-3.94,0-7.88,0-11.82,0-.22-.01-.44,0-.65.07-.84.69-1.42,1.46-1.39.74.03,1.32.59,1.34,1.4.03,1.67.01,3.35.01,5.02,0,2.57-.02,5.15,0,7.72.03,3.59,2.65,6.26,6.24,6.27,7.83.03,15.66.03,23.5,0,3.64-.01,6.24-2.68,6.25-6.34.01-3.97,0-7.94,0-11.91,0-.28-.02-.56.01-.84.08-.78.69-1.34,1.42-1.33.74.01,1.33.57,1.37,1.37.04.8.02,1.61.02,2.42,0,3.41.01,6.82,0,10.23-.03,5.37-3.86,9.2-9.23,9.21-3.85.01-7.71,0-11.56,0Z"/><path class="cls-1" d="M90.23,66.17c-4.64,0-7.84-4.54-6.21-8.86,1.18-3.1,3.08-5.79,5.08-8.41.62-.82,1.61-.82,2.23-.01,2.02,2.64,3.95,5.35,5.11,8.5,1.59,4.3-1.61,8.78-6.21,8.79ZM90.22,52.1c-1.43,2.16-2.88,4.17-3.68,6.55-.48,1.44.13,3.05,1.45,3.99,1.33.95,3.11.95,4.45,0,1.32-.93,1.94-2.55,1.46-3.99-.8-2.37-2.24-4.39-3.68-6.55Z"/><path class="cls-1" d="M1.42,105.04C.29,104.43,0,103.44,0,102.22c.02-20.03-.04-40.07.03-60.1.03-9.12,4.21-15.77,12.43-19.83.29-.14.62-.57.63-.87.04-3.28.03-6.56.03-10.02-.47.18-.84.29-1.18.46-1.72.89-3.49,1.71-5.13,2.74-1.61,1-2.73,2.43-2.93,4.46-.1.97-.92,1.57-1.85,1.58-.92,0-1.68-.6-1.89-1.55-.06-.29-.08-.61-.05-.91.15-2.08,1.11-3.78,2.56-5.22,2.61-2.58,5.82-4.16,9.24-5.32.98-.33,1.36-.74,1.26-1.78-.11-1.15-.04-2.32-.02-3.49C13.15.79,13.9.02,15.46.01c3.8-.02,7.59-.02,11.39,0,1.52,0,2.26.77,2.28,2.28.02,1.33,0,2.66,0,4.15.84-.19,1.59-.35,2.33-.53,7.55-1.88,15.1-3.77,22.66-5.65.55-.14,1.16-.25,1.71-.16.99.15,1.55.89,1.56,2.11.03,5.54.05,11.08,0,16.62-.02,1.73-1.14,2.43-2.89,2-8.22-2.04-16.43-4.08-24.65-6.12-.19-.05-.39-.08-.71-.14,0,2.37-.03,4.69.03,7,0,.27.44.63.76.78,6.21,2.99,10.18,7.81,11.76,14.52.39,1.65.54,3.38.54,5.08.04,20.14.02,40.27.04,60.41,0,1.21-.34,2.13-1.45,2.69H1.42ZM3.97,101.05h34.28c.02-.3.05-.53.05-.76,0-19.56.03-39.11-.02-58.67-.02-7.45-4.35-13.53-11.27-16.18-1.49-.57-1.82-1.05-1.82-2.69,0-3.32-.03-6.63.02-9.95.01-.78.26-1.56.39-2.34-.22-1.01-.35-2.06-.4-3.12-.05-1.11-.01-2.22-.01-3.34h-8.15c0,.46,0,.86,0,1.26,0,5.88,0,11.76,0,17.64,0,1.47-.34,1.96-1.66,2.49-7.41,2.98-11.42,8.84-11.42,16.8,0,19.25,0,38.5,0,57.75v1.12ZM53.37,4.52c-7.95,1.98-15.81,3.94-23.66,5.89,0,.07.01.14.02.2,7.86,1.95,15.72,3.91,23.64,5.87V4.52Z"/></svg>