<?xml version="1.0" encoding="UTF-8"?><svg id="Capa_1" xmlns="http://www.w3.org/2000/svg" viewBox="0 0 544.59 479.32"><defs><style>.cls-1{fill:#f9930a;}.cls-1,.cls-2{stroke-width:0px;}.cls-2{fill:#fff;}</style></defs><path class="cls-1" d="M292.9,239.17c-31.29,30.06-62.67,60.04-93.8,90.27-5.37,5.22-9.73,11.5-14.42,17.39-.96,1.2-1.42,2.83-1.97,4.32-1.28,3.47-.59,6.5,1.98,9.22,2.59,2.73,5.57,3.41,9.1,2.39,5.46-1.58,10.08-4.69,14.5-8.08,13.5-10.37,25.29-22.57,36.81-35.03,9.56-10.34,18.89-20.9,28.28-31.41,4.98-5.57,10.05-11.08,14.74-16.89,3.54-4.39,7.8-6.56,13.3-5.71,7.2,1.11,13.61-.53,19.29-4.93,3.7-2.87,7.57-5.68,10.7-9.12,7.75-8.53,15.49-17.11,22.56-26.19,12.85-16.5,24.21-34.07,35.15-51.89,3.96-6.46,7.32-13.26,8.95-20.69.57-2.59.25-5.53-.34-8.16-.63-2.8-2.08-2.98-4.17-.99-12.27,11.7-24.49,23.46-36.82,35.11-21.29,20.11-42.66,40.15-63.99,60.22.06.06.12.13.18.19Z"/><path class="cls-1" d="M146.26,173.54c9.74,8.83,19.49,17.64,29.21,26.49,4.56,4.15,9.04,8.39,13.55,12.58,2.02,1.88,3.83,2.38,4.64,1.12,1.28-2-.19-3.39-1.46-4.65-7.65-7.55-15.45-14.96-22.98-22.62-5.58-5.68-10.83-11.67-16.21-17.53-.27-.3-.45-.68-.4-1.26,3.39,2.79,6.81,5.53,10.15,8.38,10.8,9.23,21.56,18.5,32.35,27.75,1.03.88,2.04,1.83,3.22,2.45.66.35,1.64.07,2.48.07,0-.83.18-1.73-.07-2.48-.25-.74-.87-1.39-1.43-2-11.07-11.98-22.17-23.93-33.24-35.91-1.87-2.02-3.65-4.11-5.16-6.53,1.59,1.26,3.26,2.43,4.76,3.79,12.35,11.22,24.66,22.47,37.01,33.7.88.8,1.8,1.67,2.87,2.08.74.29,2.15.16,2.57-.35.45-.55.35-1.88,0-2.65-.41-.91-1.32-1.61-2.06-2.35-13.37-13.52-26.75-27.03-40.13-40.54.15-.19.31-.37.46-.56,2.64,1.81,5.32,3.58,7.93,5.43,16.57,11.74,32.78,23.93,46.94,38.61,2.5,2.59,4.89,5.33,6.95,8.27,3.62,5.16,5.33,11.08,4.32,17.31-1.15,7.07,1.49,12.32,6.64,16.64,5.87,4.92,11.84,9.71,17.82,14.5,8.27,6.62,16.66,13.09,24.86,19.79,13.55,11.09,27.08,22.2,40.44,33.52,11.53,9.77,22.85,19.82,32.7,31.33,3.33,3.89,6.16,8.32,8.6,12.84,2.26,4.18,1.39,7.63-1.53,10.53-3.36,3.32-6.66,4.19-11.04,1.9-4.62-2.41-9.22-5.08-13.24-8.37-15.47-12.65-28.94-27.35-42.24-42.18-10.43-11.63-20.79-23.33-31.05-35.11-8.39-9.63-16.53-19.47-24.89-29.13-2.35-2.72-4.97-5.22-7.63-7.64-3.39-3.07-7.3-4.43-12.01-3.58-6.95,1.25-13.68.4-19.67-3.62-2.86-1.92-5.63-4.03-8.19-6.34-12.05-10.83-22.74-22.93-32.73-35.68-4.57-5.83-9.13-11.68-13.69-17.52l.64-.48Z"/><path class="cls-1" d="M271.99,0C147.44,0,46.47,100.97,46.47,225.52s100.97,225.52,225.52,225.52,225.52-100.97,225.52-225.52S396.54,0,271.99,0ZM271.99,430.29c-113.09,0-204.77-91.68-204.77-204.77S158.9,20.75,271.99,20.75s204.77,91.68,204.77,204.77-91.68,204.77-204.77,204.77Z"/><path class="cls-1" d="M526.04,438.66c-1.17-1.99-1.17-4.28,0-6.27l17.67-30.09c2.89-4.93-1.65-10.57-8.51-10.57h-43.37v56.11c0,6.7-6.86,12.13-15.31,12.13h-46.37v11.92c0,4.11,4.2,7.44,9.39,7.44h95.67c6.86,0,11.4-5.64,8.51-10.57l-17.67-30.09Z"/><path class="cls-1" d="M57.23,446.84v-56.11H9.4c-6.86,0-11.4,5.64-8.51,10.57l17.67,30.09c1.17,1.99,1.17,4.28,0,6.27L.89,467.75c-2.89,4.93,1.65,10.57,8.51,10.57h95.67c5.18,0,9.39-3.33,9.39-7.44v-11.92h-41.91c-8.46,0-15.31-5.43-15.31-12.13Z"/><path class="cls-1" d="M470.51,347.89H78.54c-8.46,0-15.31,5.43-15.31,12.13v80.65c0,6.7,6.86,12.13,15.31,12.13h391.97c8.46,0,15.31-5.43,15.31-12.13v-80.65c0-6.7-6.86-12.13-15.31-12.13Z"/><path class="cls-2" d="M124.18,412.86h-12.37l-1.92,5.82h-10.21l12.77-34.76h11.19l12.72,34.76h-10.25l-1.92-5.82ZM121.76,405.56l-3.75-11.34-3.8,11.34h7.54Z"/><path class="cls-2" d="M163.17,424.54l-3.89-5.82c-1.02.2-2.1.3-3.25.3-3.25,0-6.25-.76-8.97-2.29-2.73-1.53-4.88-3.66-6.46-6.38-1.58-2.73-2.37-5.8-2.37-9.22s.79-6.49,2.37-9.22c1.58-2.73,3.73-4.86,6.46-6.38,2.73-1.53,5.72-2.29,8.97-2.29s6.29.76,9,2.29c2.71,1.53,4.85,3.66,6.41,6.38,1.56,2.73,2.34,5.8,2.34,9.22,0,2.89-.58,5.55-1.73,7.96-1.15,2.42-2.74,4.45-4.78,6.09l7.44,9.37h-11.54ZM150.21,407.58c1.41,1.61,3.35,2.42,5.82,2.42s4.35-.81,5.77-2.42c1.41-1.61,2.12-3.76,2.12-6.46s-.7-4.94-2.1-6.53c-1.4-1.59-3.33-2.39-5.79-2.39s-4.4.8-5.82,2.39c-1.41,1.59-2.12,3.77-2.12,6.53s.71,4.85,2.12,6.46Z"/><path class="cls-2" d="M187.58,383.77v19.92c0,1.97.44,3.49,1.31,4.56.87,1.07,2.19,1.6,3.97,1.6s3.11-.54,4.02-1.63c.9-1.08,1.36-2.6,1.36-4.54v-19.92h9.66v19.92c0,3.29-.67,6.08-2,8.38-1.33,2.3-3.15,4.04-5.45,5.2-2.3,1.17-4.9,1.75-7.79,1.75s-5.45-.57-7.67-1.73c-2.22-1.15-3.95-2.88-5.2-5.18-1.25-2.3-1.87-5.11-1.87-8.43v-19.92h9.66Z"/><path class="cls-2" d="M222.73,383.77v34.91h-9.71v-34.91h9.71Z"/><path class="cls-2" d="M263.5,383.77v7.74h-9.42v27.17h-9.66v-27.17h-9.32v-7.74h28.4Z"/><path class="cls-2" d="M276.17,383.77v19.92c0,1.97.44,3.49,1.31,4.56.87,1.07,2.19,1.6,3.97,1.6s3.11-.54,4.02-1.63c.9-1.08,1.36-2.6,1.36-4.54v-19.92h9.66v19.92c0,3.29-.67,6.08-2,8.38-1.33,2.3-3.15,4.04-5.45,5.2-2.3,1.17-4.9,1.75-7.79,1.75s-5.45-.57-7.67-1.73c-2.22-1.15-3.95-2.88-5.2-5.18-1.25-2.3-1.87-5.11-1.87-8.43v-19.92h9.66Z"/><path class="cls-2" d="M320.45,411.33h10.9v7.35h-20.61v-34.91h9.71v27.56Z"/><path class="cls-2" d="M360.8,385.52c2.71,1.53,4.85,3.66,6.41,6.38,1.56,2.73,2.34,5.8,2.34,9.22s-.79,6.49-2.37,9.22c-1.58,2.73-3.72,4.86-6.43,6.38-2.71,1.53-5.69,2.29-8.95,2.29s-6.25-.76-8.97-2.29c-2.73-1.53-4.88-3.66-6.46-6.38-1.58-2.73-2.37-5.8-2.37-9.22s.79-6.49,2.37-9.22c1.58-2.73,3.73-4.86,6.46-6.38,2.73-1.53,5.72-2.29,8.97-2.29s6.29.76,9,2.29ZM345.98,394.59c-1.41,1.59-2.12,3.77-2.12,6.53s.71,4.85,2.12,6.46c1.41,1.61,3.35,2.42,5.82,2.42s4.35-.81,5.77-2.42c1.41-1.61,2.12-3.76,2.12-6.46s-.7-4.94-2.1-6.53c-1.4-1.59-3.33-2.39-5.79-2.39s-4.4.8-5.82,2.39Z"/><path class="cls-2" d="M401.4,386.73c2.86,2.17,4.58,5.1,5.18,8.78h-10.21c-.53-.95-1.3-1.71-2.32-2.27-1.02-.56-2.22-.84-3.6-.84-2.37,0-4.25.8-5.65,2.39-1.4,1.59-2.1,3.72-2.1,6.38,0,3.02.75,5.32,2.24,6.88,1.5,1.56,3.69,2.34,6.58,2.34,1.64,0,3.09-.39,4.34-1.18,1.25-.79,2.23-1.96,2.96-3.5h-9.66v-6.9h17.7v9.61c-1.25,2.89-3.25,5.37-5.99,7.42-2.74,2.05-6.2,3.08-10.38,3.08-3.55,0-6.66-.75-9.32-2.24-2.66-1.5-4.71-3.59-6.14-6.29-1.43-2.69-2.14-5.77-2.14-9.22s.71-6.52,2.14-9.2c1.43-2.68,3.46-4.77,6.09-6.26,2.63-1.5,5.72-2.24,9.27-2.24,4.47,0,8.13,1.08,10.99,3.25Z"/><path class="cls-2" d="M437.02,385.52c2.71,1.53,4.85,3.66,6.41,6.38,1.56,2.73,2.34,5.8,2.34,9.22s-.79,6.49-2.37,9.22c-1.58,2.73-3.72,4.86-6.43,6.38-2.71,1.53-5.69,2.29-8.95,2.29s-6.25-.76-8.97-2.29c-2.73-1.53-4.88-3.66-6.46-6.38-1.58-2.73-2.37-5.8-2.37-9.22s.79-6.49,2.37-9.22c1.58-2.73,3.73-4.86,6.46-6.38,2.73-1.53,5.72-2.29,8.97-2.29s6.29.76,9,2.29ZM422.2,394.59c-1.41,1.59-2.12,3.77-2.12,6.53s.71,4.85,2.12,6.46c1.41,1.61,3.35,2.42,5.82,2.42s4.35-.81,5.77-2.42c1.41-1.61,2.12-3.76,2.12-6.46s-.7-4.94-2.1-6.53c-1.4-1.59-3.33-2.39-5.79-2.39s-4.4.8-5.82,2.39Z"/><path class="cls-1" d="M235.18,80.49c.44,6.67,0,7.2-6.82,8.24-6.9,1.05-12.69,6.05-13.93,12.16-1.17,5.8.4,13.73,8.17,17.58,1.84.91,2.66,10.03,1.12,11.19-.7.53-1.36.13-2.05-.06-17.33-4.61-24.63-27.06-12.84-41.66,3.04-3.77,6.83-6.75,11.58-8.22,2.64-.82,3.82-2.45,4.21-5.33,3.09-22.44,25.07-34.31,45.71-24.75,2.38,1.1,4.3,1.08,6.53-.28,12.62-7.66,30-.43,31.92,15.01.29,2.34,1.53,3.14,3.77,3.32,21.44,1.73,36.29,26.73,23.78,47.9-3.24,5.47-7.95,9.6-13.84,12.28-2,.91-3.01.63-3.07-1.75-.11-4.66,0-8.75,4.22-12.45,7.23-6.35,8.26-15.84,3.84-24.29-4.24-8.09-13.16-12.42-22.38-10.84-6.13,1.05-8.57-1.39-7.48-7.51,1.14-6.42-.39-10.38-4.9-12.74-4.66-2.44-9.02-1.29-13.51,3.56-2.77,3-6.02,3.34-9.24.6-7.1-6.04-15.05-7.17-23.18-3.12-8.5,4.23-12.14,11.72-11.61,21.18Z"/><path class="cls-1" d="M277.31,141.42c0,11.94,0,23.87,0,35.81,0,2.75-.46,5.28-3.61,6.22-3.88,1.16-6.94-1.03-6.95-5.28-.05-24.46,0-48.91,0-73.37,0-3.5,1.75-5.53,5.27-5.61,3.68-.09,5.22,2.13,5.23,5.56.03,12.23.01,24.46.01,36.68.02,0,.03,0,.05,0Z"/><path class="cls-1" d="M287.86,177.24c2.2-13.19,4.38-26.38,6.59-39.56,1.27-7.59,2.47-15.2,3.9-22.76.78-4.11,3.36-6.03,6.6-5.19,3.71.97,4.56,3.8,4.01,7.16-3.09,18.64-6.24,37.27-9.36,55.9-.34,2.01-.54,4.04-.98,6.02-.78,3.51-3.02,5.4-6.64,4.72-3.31-.62-4.29-3.14-4.12-6.29Z"/><path class="cls-1" d="M255.96,177.16c.55,3.64-.85,5.95-4.38,6.41-3.72.49-5.65-1.54-6.24-5.12-3.4-20.66-6.85-41.31-10.22-61.98-.52-3.19.37-5.94,3.98-6.65,3.41-.68,5.79.84,6.39,4.3,3.54,20.47,7,40.96,10.47,61.45.1.57.01,1.16.01,1.59Z"/></svg>